<?xml version="1.0" standalone="no"?>
<!DOCTYPE svg PUBLIC "-//W3C//DTD SVG 20010904//EN"
 "http://www.w3.org/TR/2001/REC-SVG-20010904/DTD/svg10.dtd">
<svg version="1.0" xmlns="http://www.w3.org/2000/svg"
 width="864.000000pt" height="864.000000pt" viewBox="0 0 864.000000 864.000000"
 preserveAspectRatio="xMidYMid meet">
<metadata>
Created by potrace 1.14, written by Peter Selinger 2001-2017
</metadata>
<g transform="translate(0.000000,864.000000) scale(0.100000,-0.100000)"
fill="#000000" stroke="none">
<path d="M3719 8156 c-2 -3 -33 -7 -69 -10 -81 -7 -157 -16 -190 -22 -14 -3
-47 -7 -74 -10 -27 -2 -52 -6 -56 -9 -4 -3 -25 -7 -46 -11 -69 -10 -78 -12
-124 -25 -25 -7 -54 -13 -65 -14 -11 -2 -54 -12 -95 -24 -41 -12 -79 -24 -85
-25 -54 -14 -102 -29 -110 -34 -5 -4 -19 -8 -30 -9 -11 -2 -70 -24 -131 -48
-62 -25 -115 -45 -118 -45 -12 0 -288 -131 -296 -141 -3 -3 -16 -10 -30 -14
-13 -4 -36 -15 -50 -25 -14 -9 -70 -43 -125 -76 -55 -32 -101 -62 -103 -66 -2
-5 -8 -8 -14 -8 -8 0 -104 -62 -143 -93 -5 -4 -46 -35 -90 -68 -44 -33 -81
-65 -83 -70 -2 -5 -8 -9 -14 -9 -22 0 -349 -310 -458 -435 -104 -119 -140
-164 -140 -174 0 -6 -4 -11 -9 -11 -4 0 -21 -19 -37 -42 -16 -24 -33 -48 -39
-55 -40 -49 -95 -130 -95 -141 0 -6 -4 -12 -8 -14 -11 -4 -122 -186 -122 -199
0 -5 -4 -9 -10 -9 -5 0 -10 -4 -10 -8 0 -4 -21 -48 -48 -97 -75 -142 -205
-435 -217 -489 -1 -6 -5 -18 -8 -26 -8 -19 -57 -169 -62 -190 -2 -8 -16 -58
-31 -110 -14 -52 -27 -104 -29 -115 -2 -11 -10 -54 -19 -95 -9 -41 -19 -88
-21 -105 -2 -16 -6 -39 -9 -51 -2 -12 -7 -45 -11 -75 -3 -30 -8 -66 -11 -81
-9 -56 -24 -278 -24 -356 -1 -26 -6 -35 -28 -44 -130 -54 -139 -61 -100 -74
13 -4 45 -17 71 -30 52 -24 56 -22 55 31 -1 84 0 85 50 108 26 11 49 22 52 22
3 1 28 11 55 24 28 13 64 29 80 36 17 8 55 24 85 38 30 13 78 34 105 47 28 12
68 30 90 40 70 32 148 66 225 99 41 18 98 43 125 56 73 34 216 98 225 100 7 2
77 33 135 60 84 39 206 93 270 120 28 12 66 29 190 85 28 12 70 31 95 42 25
11 65 29 90 41 25 11 64 28 88 38 23 11 63 29 90 41 26 12 49 22 52 23 3 0 21
8 40 17 44 20 99 44 220 98 52 23 109 48 125 55 17 7 59 27 95 43 36 16 99 44
140 62 41 18 108 48 148 66 41 19 76 34 79 34 2 0 39 16 81 36 42 19 86 39 97
44 65 29 128 56 185 82 111 51 209 94 310 138 41 17 95 41 120 53 25 12 47 22
50 22 3 1 21 8 40 17 19 9 58 26 85 39 28 12 73 32 100 44 28 13 93 42 145 65
52 23 113 50 135 60 22 10 60 27 85 38 25 11 108 48 185 82 77 34 168 75 203
91 35 16 65 29 67 29 2 0 36 15 77 34 40 18 107 48 148 66 41 17 112 50 157
71 46 21 85 39 88 39 6 0 26 9 162 71 72 33 136 61 143 64 13 4 61 26 125 55
132 60 166 74 178 72 4 -1 7 2 7 8 0 5 4 10 10 10 5 0 35 12 67 26 32 14 72
32 88 39 17 7 59 27 95 43 36 16 90 40 120 52 30 13 57 25 59 26 5 4 -130 119
-210 177 -124 90 -171 122 -287 194 -73 46 -136 83 -139 83 -2 0 -18 9 -34 21
-16 11 -29 17 -29 14 0 -3 -12 2 -27 12 -30 20 -148 79 -228 113 -100 44 -239
100 -246 100 -4 0 -20 5 -36 12 -15 6 -30 12 -33 13 -3 0 -41 12 -85 27 -171
54 -463 124 -560 133 -16 2 -43 5 -60 8 -32 6 -115 17 -180 24 -51 6 -641 14
-646 9z"/>
<path d="M8610 8147 c-81 -37 -180 -81 -210 -94 -19 -8 -51 -22 -70 -30 -19
-9 -73 -33 -120 -53 -47 -21 -116 -52 -155 -70 -73 -33 -93 -42 -185 -83 -154
-68 -199 -87 -209 -87 -6 0 -11 -4 -11 -10 0 -5 -5 -10 -11 -10 -11 0 -46 -14
-134 -55 -27 -13 -84 -38 -125 -56 -70 -30 -100 -43 -232 -103 -29 -13 -132
-58 -228 -101 -210 -92 -246 -109 -328 -146 l-64 -29 160 -158 c180 -178 245
-252 392 -443 138 -179 326 -500 427 -729 11 -25 29 -65 41 -90 11 -25 27 -65
35 -90 8 -25 30 -83 47 -130 18 -47 34 -95 35 -106 2 -12 8 -31 14 -43 7 -11
9 -21 7 -21 -3 0 1 -19 9 -41 11 -31 45 -161 60 -229 1 -3 5 -21 10 -40 4 -19
9 -46 11 -60 1 -14 3 -25 4 -25 1 0 3 -9 5 -20 11 -82 17 -123 20 -140 15
-102 23 -181 30 -305 3 -52 8 -96 10 -99 2 -2 0 -12 -6 -22 -5 -11 -6 -19 -2
-19 5 0 7 -39 6 -87 -4 -92 -4 -105 -2 -125 2 -17 -11 -216 -16 -253 -2 -16
-7 -57 -10 -90 -3 -33 -8 -67 -10 -75 -2 -8 -7 -35 -10 -60 -9 -67 -14 -98
-32 -180 -20 -97 -18 -88 -32 -140 -7 -25 -15 -53 -17 -63 -10 -52 -86 -291
-97 -305 -5 -6 -7 -12 -4 -12 6 0 -42 -127 -78 -206 -14 -30 -25 -56 -25 -59
0 -8 -94 -200 -100 -205 -4 -3 -11 -16 -15 -30 -4 -13 -15 -36 -25 -50 -9 -14
-43 -70 -76 -125 -32 -55 -62 -101 -66 -103 -5 -2 -8 -8 -8 -12 0 -24 -199
-292 -318 -430 -79 -91 -343 -355 -369 -368 -13 -7 -35 -1 -85 22 -36 17 -81
37 -100 45 -18 8 -91 41 -163 73 -71 33 -134 61 -140 62 -5 1 -30 12 -55 23
-25 12 -128 58 -230 103 -102 45 -207 92 -235 105 -27 12 -66 30 -85 38 -19 8
-65 29 -103 46 -37 17 -70 31 -72 31 -5 0 -63 26 -170 76 -33 15 -62 29 -65
29 -3 1 -25 10 -50 21 -25 12 -61 27 -80 34 -19 7 -39 17 -45 21 -5 4 -84 40
-175 79 -91 40 -198 88 -238 106 -41 19 -75 34 -77 34 -2 0 -38 16 -82 36 -43
20 -94 43 -113 51 -44 19 -115 51 -205 93 -38 18 -74 33 -80 34 -5 1 -36 14
-68 29 -32 15 -62 27 -67 27 -6 0 -10 5 -10 12 0 6 -3 9 -6 6 -5 -5 -97 33
-188 78 -16 8 -35 14 -43 14 -7 0 -13 5 -13 12 0 6 -3 8 -6 5 -4 -4 -23 2 -43
12 -20 11 -94 45 -166 76 -71 31 -152 67 -180 80 -48 22 -125 55 -135 57 -3 1
-25 12 -50 24 -38 19 -89 42 -110 49 -5 2 -98 43 -145 65 -23 10 -138 62 -205
92 -25 11 -54 23 -65 28 -11 4 -49 22 -85 38 -36 17 -99 45 -140 63 -106 45
-204 89 -355 159 -38 18 -74 33 -80 34 -5 1 -30 12 -55 23 -25 12 -88 40 -140
63 -52 23 -111 49 -130 58 -19 9 -37 17 -40 17 -3 1 -32 13 -65 29 -33 15 -69
31 -80 36 -11 5 -60 27 -110 50 -49 23 -94 43 -100 45 -5 1 -30 11 -55 22
-108 49 -338 151 -370 163 -19 7 -39 17 -45 21 -31 22 -375 165 -376 155 -4
-44 9 -234 26 -381 6 -51 10 -80 21 -137 3 -18 7 -49 9 -68 2 -19 4 -35 6 -35
1 0 3 -9 5 -20 23 -154 112 -463 189 -660 66 -167 182 -416 198 -423 4 -2 5
-8 1 -13 -3 -5 -1 -9 4 -9 4 0 14 -16 22 -35 8 -19 17 -35 22 -35 4 0 8 -5 8
-10 0 -20 176 -293 257 -399 112 -147 208 -257 358 -406 127 -128 161 -159
259 -240 27 -22 57 -47 67 -56 10 -8 30 -24 44 -35 15 -10 46 -33 69 -50 240
-179 508 -329 826 -461 146 -61 133 -56 175 -68 17 -4 36 -12 43 -18 6 -5 12
-7 12 -4 0 3 26 -4 58 -15 65 -23 90 -30 115 -31 9 -1 17 -4 17 -7 0 -4 6 -7
13 -7 6 -1 40 -8 74 -17 35 -10 71 -19 80 -21 10 -2 50 -10 88 -19 39 -8 88
-17 110 -20 23 -4 52 -9 65 -11 23 -5 81 -13 140 -20 121 -16 224 -20 465 -20
297 1 376 5 533 31 17 3 49 7 70 10 60 7 121 19 207 39 33 8 72 16 87 19 15 2
31 7 36 10 5 3 19 7 33 9 65 12 344 101 424 136 11 4 37 16 58 25 21 9 44 16
52 16 8 0 15 4 15 10 0 5 16 12 35 16 19 3 35 10 35 15 0 5 5 9 11 9 14 0 284
135 299 150 9 9 85 51 103 57 9 3 17 9 17 14 0 5 7 9 15 9 8 0 15 5 15 10 0 6
6 10 13 10 7 0 23 9 35 20 12 11 24 20 27 20 5 0 105 68 150 102 6 4 35 27 65
50 30 23 60 46 65 50 6 4 22 18 37 30 48 42 64 54 75 61 6 4 47 -9 90 -28 43
-20 87 -40 98 -45 11 -4 52 -23 90 -40 63 -29 111 -50 125 -55 7 -3 70 -31
143 -64 34 -16 96 -43 137 -61 41 -18 108 -48 148 -66 41 -19 75 -34 77 -34 3
0 30 -12 62 -26 110 -50 168 -76 223 -100 67 -30 122 -55 175 -79 22 -10 42
-19 45 -20 3 -1 30 -12 60 -25 30 -14 58 -24 63 -22 4 1 7 -2 7 -8 0 -5 4 -10
10 -10 5 0 33 -11 62 -24 29 -13 55 -24 58 -23 3 1 19 -6 35 -15 34 -19 184
-88 190 -88 2 0 36 -15 77 -34 40 -18 90 -41 111 -49 l37 -16 0 3840 c0 2111
-1 3839 -2 3838 -2 0 -14 -5 -28 -12z"/>
</g>
</svg>
